<svg id="Layer_1" enable-background="new 0 0 512.011 512.011" height="512" viewBox="0 0 512.011 512.011" width="512" xmlns="http://www.w3.org/2000/svg"><g><g><path d="m489.078 82.449c-17.497-25.587-42.139-42.474-67.607-46.331-3.116-.472-6.28.555-8.525 2.773-34.406 33.993-68.209 52.743-108.906 60.285-4.208-4.22-10.139-6.365-17.64-6.365-12.333 0-23.087 8.313-30.394 17.814-7.307-9.501-18.061-17.814-30.394-17.814-7.501 0-13.432 2.145-17.639 6.364-40.693-7.543-74.512-26.303-108.906-60.284-2.245-2.218-5.409-3.246-8.525-2.773-25.539 3.867-50.226 20.821-67.732 46.514-16.685 24.487-24.842 53.281-22.378 78.998.885 9.236 3.128 17.792 6.643 25.511-4.604 15.076-10.584 39.443 3.954 59.074 12.041 16.26 34.778 24.861 69.307 26.171-4.53 19.847-9.939 38.865-15.51 55.768-.019.061-.042.12-.06.182-8.428 25.54-17.216 46.237-23.871 57.625-1.046 1.79-1.51 3.86-1.327 5.925.074.839 2.013 20.716 19.129 34.555 11.943 9.656 27.872 13.896 47.447 12.638 6.153 9.411 17.313 19.416 32.126 24.612 12.191 4.278 31.277 6.688 54.883-4.565 9.472 6.199 30.49 16.88 62.854 16.88s53.382-10.681 62.854-16.88c23.604 11.252 42.69 8.842 54.886 4.565 14.811-5.196 25.971-15.202 32.123-24.612 19.557 1.26 35.504-2.98 47.448-12.638 17.116-13.839 19.054-33.715 19.128-34.555.183-2.065-.281-4.135-1.327-5.925-6.654-11.387-15.442-32.082-23.869-57.62-.02-.068-.045-.133-.066-.2-5.57-16.9-10.977-35.913-15.506-55.755 34.55-1.312 57.297-9.922 69.331-26.203 14.528-19.655 8.523-44.017 3.927-59.056 3.567-7.835 5.83-16.525 6.685-25.913 2.338-25.683-5.877-54.392-22.543-78.765zm-202.678 30.362c2.567 0 3.438.468 3.468.468h.001c1.283 1.601 1.161 9.587 1.088 14.359-.027 1.807-.056 3.668-.056 5.568s.028 3.761.056 5.568c.073 4.775.195 12.767-1.033 14.308-.007.005-.836.518-3.523.518-9.037 0-19.108-15.031-20.336-20.394 1.226-5.363 11.298-20.395 20.335-20.395zm-40.453 20.395c-1.228 5.363-11.298 20.394-20.335 20.394-2.567 0-3.438-.468-3.468-.468h-.001c-1.283-1.601-1.161-9.586-1.088-14.359.027-1.807.056-3.667.056-5.568s-.028-3.761-.056-5.568c-.073-4.775-.195-12.767 1.033-14.308.007-.005.836-.518 3.523-.518 9.038 0 19.108 15.032 20.336 20.395zm-218.846 101.106c-5.418-7.317-5.899-16.7-4.619-25.633 1.427 1.342 2.9 2.645 4.454 3.876 15.207 12.048 35.765 18.289 61.186 18.637-1.047 7.116-2.263 14.236-3.614 21.309-29.298-.684-49.066-6.925-57.407-18.189zm413.64 176.576c-8.93 7.22-22.146 9.81-39.279 7.693-4.479-.553-8.772 1.962-10.481 6.138-2.166 5.294-10.558 15.433-23.857 20.099-13.528 4.747-28.437 2.678-44.313-6.152-3.737-2.078-8.32-1.602-11.496 1.258-.752.656-18.844 16.081-55.308 16.081s-54.555-15.424-55.249-16.03c-3.177-2.861-7.818-3.386-11.554-1.309-15.876 8.83-30.784 10.898-44.313 6.152-13.3-4.666-21.693-14.805-23.86-20.1-1.708-4.176-6.004-6.689-10.48-6.138-16.993 2.097-30.135-.432-39.063-7.519-7.568-6.01-10.45-14.15-11.476-18.287 5.135-9.4 10.667-21.981 16.112-36.454 10.912 13.482 27.248 19.658 49.377 18.719 4.951 7.089 13.414 14.18 22.871 18.8 10.239 5.003 25.99 9.488 45.088 4.41 3.082 2.858 7.618 6.37 13.897 9.646 1.478.771 3.059 1.136 4.617 1.136 3.607 0 7.091-1.957 8.874-5.376 2.556-4.896.657-10.937-4.239-13.492-7.894-4.119-11.42-8.443-11.876-9.031-2.524-3.961-7.29-5.34-11.705-3.709-15.375 5.679-27.979 2.297-35.847-1.54-10.015-4.885-15.742-12.117-16.443-14.311-1.433-4.505-5.814-7.394-10.529-6.919-30.447 3.06-40.239-9.071-45.335-23.492 2.824-8.766 5.546-17.883 8.087-27.153 8.852-32.288 19.402-80.358 19.402-126.006 0-5.523-4.478-10-10-10s-10 4.477-10 10c0 10.772-.631 21.915-1.761 33.204-42.192.051-67.061-18.08-70.261-51.488-1.996-20.833 5.105-45.442 18.996-65.829 13.253-19.446 31.062-32.733 49.468-37.079 34.83 33.34 70.847 53.048 112.306 61.406-.151 3.142-.105 6.406-.054 9.728.026 1.708.054 3.466.054 5.262s-.027 3.555-.054 5.262c-.168 11.017-.328 21.423 6.824 28.685 4.213 4.278 10.178 6.447 17.73 6.447 12.333 0 23.087-8.313 30.394-17.814 7.307 9.501 18.061 17.814 30.394 17.814 7.553 0 13.518-2.169 17.73-6.447 7.152-7.262 6.992-17.668 6.824-28.685-.026-1.708-.054-3.466-.054-5.262s.027-3.555.054-5.262c.051-3.321.097-6.584-.054-9.725 41.458-8.355 77.467-28.06 112.306-61.408 18.351 4.335 36.122 17.565 49.361 36.928 13.878 20.296 21.03 44.842 19.133 65.66-3.061 33.585-27.933 51.882-70.29 51.822-1.13-11.292-1.762-22.44-1.762-33.214 0-5.523-4.478-10-10-10s-10 4.477-10 10c0 45.647 10.551 93.718 19.402 126.006 2.541 9.27 5.263 18.386 8.087 27.153-5.097 14.42-14.894 26.552-45.335 23.492-4.705-.47-9.091 2.421-10.529 6.919-.701 2.193-6.429 9.426-16.443 14.311-7.867 3.837-20.474 7.218-35.846 1.54-4.417-1.63-9.182-.253-11.706 3.709-.456.587-3.983 4.914-11.882 9.034-4.896 2.555-6.796 8.595-4.241 13.491 1.784 3.42 5.268 5.377 8.875 5.377 1.558 0 3.14-.365 4.616-1.136 6.283-3.278 10.822-6.792 13.905-9.651 19.095 5.078 34.849.594 45.088-4.41 9.457-4.621 17.92-11.711 22.871-18.8 1.458.062 2.893.093 4.3.093 19.95-.001 34.878-6.223 45.075-18.817 5.449 14.486 10.985 27.076 16.124 36.479-.997 4.087-3.807 12.06-11.267 18.091zm44.182-176.594c-8.332 11.273-28.113 17.542-57.419 18.211-1.351-7.074-2.568-14.196-3.615-21.314 25.772-.354 46.548-6.764 61.803-19.13 1.324-1.073 2.583-2.203 3.813-3.359 1.372 9.355.742 18.389-4.582 25.592z"/><path d="m256.005 398.406h-.007c-5.522 0-9.996 4.477-9.996 10s4.48 10 10.003 10c5.522 0 10-4.477 10-10s-4.477-10-10-10z"/></g></g></svg>