<svg xmlns="http://www.w3.org/2000/svg" xmlns:xlink="http://www.w3.org/1999/xlink" width="22" height="22" viewBox="0 0 22 22">
  <defs>
    <polygon id="icon_login_fb-a" points="0 0 22 0 22 22 0 22"/>
    <polygon id="icon_login_fb-c" points=".023 .115 9.722 .115 9.722 18.792 .023 18.792"/>
  </defs>
  <g fill="none" fill-rule="evenodd">
    <mask id="icon_login_fb-b" fill="#fff">
      <use xlink:href="#icon_login_fb-a"/>
    </mask>
    <path fill="#FFF" d="M20.7856611,22.0000764 C21.4562028,22.0000764 21.9999389,21.4561875 21.9999389,20.7857986 L21.9999389,1.21420139 C21.9999389,0.543506944 21.4562028,7.63888889e-05 20.7856611,7.63888889e-05 L1.21421667,7.63888889e-05 C0.543369444,7.63888889e-05 -6.11111111e-05,0.543506944 -6.11111111e-05,1.21420139 L-6.11111111e-05,20.7857986 C-6.11111111e-05,21.4561875 0.543369444,22.0000764 1.21421667,22.0000764 L20.7856611,22.0000764 Z" mask="url(#icon_login_fb-b)"/>
    <g transform="translate(8.861 3.208)">
      <mask id="icon_login_fb-d" fill="#fff">
        <use xlink:href="#icon_login_fb-c"/>
      </mask>
      <path fill="#4267B2" d="M6.3184,18.7917431 L6.3184,10.2720903 L9.17809444,10.2720903 L9.60633056,6.95192361 L6.3184,6.95192361 L6.3184,4.83197917 C6.3184,3.87070139 6.58530278,3.21559028 7.96396944,3.21559028 L9.72213611,3.21482639 L9.72213611,0.245284722 C9.41795556,0.204798611 8.37433056,0.114506944 7.16005278,0.114506944 C4.62516389,0.114506944 2.88976111,1.6616875 2.88976111,4.50335417 L2.88976111,6.95192361 L0.0227333333,6.95192361 L0.0227333333,10.2720903 L2.88976111,10.2720903 L2.88976111,18.7917431 L6.3184,18.7917431 Z" mask="url(#icon_login_fb-d)"/>
    </g>
  </g>
</svg>
